<svg width="601" height="771" viewBox="0 0 601 771" fill="none" xmlns="http://www.w3.org/2000/svg">
<path d="M105 470.723C74.8448 540.188 45.5119 584.798 59.5001 659.223C68.1158 705.063 110.5 767.223 110.5 767.223C110.5 767.223 193.972 719.454 222 753.223C243.314 778.902 316.273 749.54 324.5 735.723C324.5 735.723 350.5 704.723 413 746.723C475.5 788.723 551.5 762.223 551.5 762.223C567.435 765.882 414.122 616.353 423.5 505.723C423.5 505.723 478.52 491.632 502 466.723C520.69 446.896 534 404.723 534 404.723C616.5 428.723 603.112 357.078 593.5 316.723C582.864 272.068 525.137 251.371 484.5 272.723C451.135 290.254 451.5 337.723 446 361.223C440.5 384.723 413 388.223 413 388.223C413 388.223 414 374.223 430 302.723C446 231.223 481.122 181.558 451.5 113.223C426.754 56.1352 393.277 22.1535 333 6.72273C286.939 -5.06892 254.128 -1.82106 212 20.2227C173.441 40.3992 153.5 52.2228 136 101.723C118.5 151.223 115.976 172.797 122 218.223C124.889 240.007 136 272.723 136 272.723C136 272.723 111.794 240.974 100.5 218.223C93.3741 203.867 85.0001 180.223 85.0001 180.223C85.0001 180.223 77.2534 156.776 64.5001 153.223C53.0771 150.04 43.1043 153.124 35.5001 162.223C28.6235 170.451 27.2259 179.011 30.5001 189.223C33.5779 198.822 39.0526 204.208 48.5001 207.723C56.1864 210.582 69.5001 207.723 69.5001 207.723C69.5001 207.723 84.0001 224.723 78.5001 231.223C73.0001 237.723 58.5001 231.223 58.5001 231.223L25.0001 194.223C25.0001 194.223 2.5001 260.723 48.5001 316.723C94.5001 372.723 144.5 395.723 144.5 395.723C144.5 395.723 118.182 440.357 105 470.723Z" fill="white"/>
<ellipse cx="231" cy="136.223" rx="25" ry="36" fill="black"/>
<ellipse cx="337" cy="136.223" rx="25" ry="36" fill="black"/>
<ellipse cx="288" cy="239.223" rx="28" ry="21" fill="black"/>
<rect y="107.336" width="112.484" height="158.28" rx="20" transform="rotate(-15 0 107.336)" fill="#F2F2F2"/>
<path d="M36.4381 116.665L33.1199 138.449L28.4404 139.681L32.0699 118.979L20.962 121.904L20 118.376L35.7721 114.223L36.4381 116.665Z" fill="#1A1919"/>
<path fill-rule="evenodd" clip-rule="evenodd" d="M45.4606 156.416C44.7933 156.591 44.1964 156.902 43.6869 157.313C44.001 156.325 44.0415 155.217 43.7405 154.113C42.9506 151.216 40.1148 149.446 37.4066 150.159C34.6985 150.872 33.1434 153.798 33.9333 156.695C34.2198 157.746 34.7767 158.648 35.498 159.337C34.9543 159.288 34.3975 159.329 33.846 159.474C31.1378 160.187 29.5827 163.113 30.3726 166.01C31.1625 168.906 33.9981 170.677 36.7063 169.964C37.3179 169.803 37.87 169.528 38.3503 169.167C38.3506 169.168 40.453 167.908 41.1568 164.592L41.6363 166.351C41.6363 166.351 42.3786 172.096 37.1214 174.131L36.2559 174.359L36.4915 175.223L51.2599 171.334L51.0243 170.47L50.159 170.698C44.5708 171.519 42.2901 166.179 42.2901 166.179L41.8428 164.538C42.3017 165.123 44.7241 167.934 48.1743 166.94C48.2231 166.929 48.2721 166.918 48.321 166.905C51.0292 166.192 52.5842 163.266 51.7944 160.369C51.0045 157.473 48.1689 155.702 45.4606 156.416Z" fill="#1A1919"/>
<path d="M49.0021 316.723C95.0021 372.723 145.002 395.723 145.002 395.723L136.502 272.723L59.0021 231.223L25.5021 194.223C25.5021 194.223 3.00205 260.723 49.0021 316.723Z" fill="white"/>
</svg>
