<?xml version="1.0" encoding="utf-8"?>
<svg viewBox="318.097 -154.153 581.209 770.471" xmlns="http://www.w3.org/2000/svg">
  <g>
    <path d="M 403.599 316.57 C 373.443 386.035 344.111 430.645 358.099 505.07 C 366.714 550.91 409.099 613.07 409.099 613.07 C 409.099 613.07 492.571 565.301 520.599 599.07 C 541.913 624.749 614.872 595.387 623.099 581.57 C 623.099 581.57 649.099 550.57 711.599 592.57 C 774.099 634.57 850.099 608.07 850.099 608.07 C 866.034 611.729 712.721 462.2 722.099 351.57 C 722.099 351.57 777.119 337.479 800.599 312.57 C 819.289 292.743 832.599 250.57 832.599 250.57 C 915.099 274.57 901.711 202.925 892.099 162.57 C 881.463 117.915 823.736 97.218 783.099 118.57 C 749.734 136.101 750.099 183.57 744.599 207.07 C 739.099 230.57 711.599 234.07 711.599 234.07 C 711.599 234.07 712.599 220.07 728.599 148.57 C 744.599 77.07 779.721 27.405 750.099 -40.93 C 725.353 -98.018 691.876 -131.999 631.599 -147.43 C 585.538 -159.222 552.727 -155.974 510.599 -133.93 C 472.04 -113.754 452.099 -101.93 434.599 -52.43 C 417.099 -2.93 414.575 18.644 420.599 64.07 C 423.488 85.854 434.599 118.57 434.599 118.57 C 434.599 118.57 410.393 86.821 399.099 64.07 C 391.973 49.714 383.599 26.07 383.599 26.07 C 383.599 26.07 375.852 2.623 363.099 -0.93 C 351.676 -4.113 341.703 -1.029 334.099 8.07 C 327.222 16.298 323.599 40.07 323.599 40.07 C 323.599 40.07 301.099 106.57 347.099 162.57 C 393.099 218.57 443.099 241.57 443.099 241.57 C 443.099 241.57 416.781 286.204 403.599 316.57 Z" fill="white"/>
    <ellipse cx="529.599" cy="-17.93" rx="25" ry="36" fill="black"/>
    <ellipse cx="635.599" cy="-17.93" rx="25" ry="36" fill="black"/>
    <ellipse cx="586.599" cy="85.07" rx="28" ry="21" fill="black"/>
    <path d="M 347.601 162.57 C 393.601 218.57 443.601 241.57 443.601 241.57 L 435.101 118.57 L 357.601 77.07 L 324.101 40.07 C 324.101 40.07 301.601 106.57 347.601 162.57 Z" fill="white"/>
  </g>
</svg>